<mxfile host="app.diagrams.net" modified="2023-05-02T09:10:21.085Z" agent="Mozilla/5.0 (Macintosh; Intel Mac OS X 10_15_7) AppleWebKit/537.36 (KHTML, like Gecko) Chrome/112.0.0.0 Safari/537.36" etag="LK-BUaj0Y_oz9f6U1BIe" version="21.2.4" type="device">
  <diagram name="Страница 1" id="zQWfU2PgmaeP0OLxTB16">
    <mxGraphModel dx="855" dy="660" grid="1" gridSize="10" guides="1" tooltips="1" connect="1" arrows="1" fold="1" page="1" pageScale="1" pageWidth="827" pageHeight="1169" math="0" shadow="0">
      <root>
        <mxCell id="0" />
        <mxCell id="1" parent="0" />
        <mxCell id="F4jMmtCBacODcnc01Ri_-5" value="" style="edgeStyle=orthogonalEdgeStyle;rounded=0;orthogonalLoop=1;jettySize=auto;html=1;" edge="1" parent="1" source="F4jMmtCBacODcnc01Ri_-1" target="F4jMmtCBacODcnc01Ri_-4">
          <mxGeometry relative="1" as="geometry" />
        </mxCell>
        <mxCell id="F4jMmtCBacODcnc01Ri_-1" value="Начало" style="ellipse;whiteSpace=wrap;html=1;" vertex="1" parent="1">
          <mxGeometry x="330" y="60" width="120" height="80" as="geometry" />
        </mxCell>
        <mxCell id="F4jMmtCBacODcnc01Ri_-14" value="" style="edgeStyle=orthogonalEdgeStyle;rounded=0;orthogonalLoop=1;jettySize=auto;html=1;" edge="1" parent="1" source="F4jMmtCBacODcnc01Ri_-4" target="F4jMmtCBacODcnc01Ri_-12">
          <mxGeometry relative="1" as="geometry" />
        </mxCell>
        <mxCell id="F4jMmtCBacODcnc01Ri_-4" value="array1&lt;br&gt;array2&lt;br&gt;count=0&lt;br&gt;i=0" style="rounded=0;whiteSpace=wrap;html=1;" vertex="1" parent="1">
          <mxGeometry x="330" y="180" width="120" height="60" as="geometry" />
        </mxCell>
        <mxCell id="F4jMmtCBacODcnc01Ri_-17" value="" style="edgeStyle=orthogonalEdgeStyle;rounded=0;orthogonalLoop=1;jettySize=auto;html=1;" edge="1" parent="1" source="F4jMmtCBacODcnc01Ri_-12" target="F4jMmtCBacODcnc01Ri_-16">
          <mxGeometry relative="1" as="geometry" />
        </mxCell>
        <mxCell id="F4jMmtCBacODcnc01Ri_-27" value="" style="edgeStyle=orthogonalEdgeStyle;rounded=0;orthogonalLoop=1;jettySize=auto;html=1;" edge="1" parent="1" source="F4jMmtCBacODcnc01Ri_-12" target="F4jMmtCBacODcnc01Ri_-26">
          <mxGeometry relative="1" as="geometry" />
        </mxCell>
        <mxCell id="F4jMmtCBacODcnc01Ri_-12" value="&lt;span style=&quot;color: rgb(0, 0, 0); font-family: Helvetica; font-size: 12px; font-style: normal; font-variant-ligatures: normal; font-variant-caps: normal; font-weight: 400; letter-spacing: normal; orphans: 2; text-align: center; text-indent: 0px; text-transform: none; widows: 2; word-spacing: 0px; -webkit-text-stroke-width: 0px; background-color: rgb(251, 251, 251); text-decoration-thickness: initial; text-decoration-style: initial; text-decoration-color: initial; float: none; display: inline !important;&quot;&gt;i&amp;lt;array1.Length&lt;br&gt;i++&lt;br&gt;&lt;/span&gt;" style="shape=hexagon;perimeter=hexagonPerimeter2;whiteSpace=wrap;html=1;fixedSize=1;" vertex="1" parent="1">
          <mxGeometry x="330" y="290" width="120" height="80" as="geometry" />
        </mxCell>
        <mxCell id="F4jMmtCBacODcnc01Ri_-15" value="&lt;meta charset=&quot;utf-8&quot;&gt;&lt;span style=&quot;color: rgb(0, 0, 0); font-family: Helvetica; font-size: 12px; font-style: normal; font-variant-ligatures: normal; font-variant-caps: normal; font-weight: 400; letter-spacing: normal; orphans: 2; text-align: center; text-indent: 0px; text-transform: none; widows: 2; word-spacing: 0px; -webkit-text-stroke-width: 0px; background-color: rgb(251, 251, 251); text-decoration-thickness: initial; text-decoration-style: initial; text-decoration-color: initial; float: none; display: inline !important;&quot;&gt;Пусть это будет FOR&lt;/span&gt;" style="shape=hexagon;perimeter=hexagonPerimeter2;whiteSpace=wrap;html=1;fixedSize=1;" vertex="1" parent="1">
          <mxGeometry x="20" y="50" width="120" height="80" as="geometry" />
        </mxCell>
        <mxCell id="F4jMmtCBacODcnc01Ri_-21" value="yes" style="edgeStyle=orthogonalEdgeStyle;rounded=0;orthogonalLoop=1;jettySize=auto;html=1;" edge="1" parent="1" source="F4jMmtCBacODcnc01Ri_-16" target="F4jMmtCBacODcnc01Ri_-22">
          <mxGeometry relative="1" as="geometry">
            <mxPoint x="160" y="420" as="targetPoint" />
            <Array as="points">
              <mxPoint x="215" y="490" />
              <mxPoint x="215" y="491" />
              <mxPoint x="160" y="491" />
            </Array>
          </mxGeometry>
        </mxCell>
        <mxCell id="F4jMmtCBacODcnc01Ri_-24" value="no" style="edgeStyle=orthogonalEdgeStyle;rounded=0;orthogonalLoop=1;jettySize=auto;html=1;entryX=0.025;entryY=0.731;entryDx=0;entryDy=0;entryPerimeter=0;" edge="1" parent="1" source="F4jMmtCBacODcnc01Ri_-16" target="F4jMmtCBacODcnc01Ri_-12">
          <mxGeometry relative="1" as="geometry">
            <mxPoint x="290" y="330" as="targetPoint" />
            <Array as="points">
              <mxPoint x="291" y="490" />
              <mxPoint x="291" y="349" />
            </Array>
          </mxGeometry>
        </mxCell>
        <mxCell id="F4jMmtCBacODcnc01Ri_-16" value="array1[i],Length&amp;lt;=3" style="rhombus;whiteSpace=wrap;html=1;" vertex="1" parent="1">
          <mxGeometry x="320" y="410" width="140" height="160" as="geometry" />
        </mxCell>
        <mxCell id="F4jMmtCBacODcnc01Ri_-23" style="edgeStyle=orthogonalEdgeStyle;rounded=0;orthogonalLoop=1;jettySize=auto;html=1;entryX=0;entryY=0.25;entryDx=0;entryDy=0;" edge="1" parent="1" source="F4jMmtCBacODcnc01Ri_-22" target="F4jMmtCBacODcnc01Ri_-12">
          <mxGeometry relative="1" as="geometry">
            <mxPoint x="210" y="310" as="targetPoint" />
            <Array as="points">
              <mxPoint x="160" y="313" />
            </Array>
          </mxGeometry>
        </mxCell>
        <mxCell id="F4jMmtCBacODcnc01Ri_-22" value="array2[count]=array1[i]&lt;br&gt;count++" style="rounded=0;whiteSpace=wrap;html=1;" vertex="1" parent="1">
          <mxGeometry x="100" y="350" width="120" height="60" as="geometry" />
        </mxCell>
        <mxCell id="F4jMmtCBacODcnc01Ri_-26" value="Конец" style="ellipse;shape=cloud;whiteSpace=wrap;html=1;" vertex="1" parent="1">
          <mxGeometry x="510" y="290" width="120" height="80" as="geometry" />
        </mxCell>
      </root>
    </mxGraphModel>
  </diagram>
</mxfile>
